IKResults
version=1
nRows=8
nColumns=63
inDegrees=yes

Units are S.I. units (second, meters, Newtons, ...)
If the header above contains a line with 'inDegrees', this indicates whether rotational values are in degrees (yes) or radians (no).

endheader
time	pelvis_tilt	pelvis_list	pelvis_rotation	pelvis_tx	pelvis_ty	pelvis_tz	hip_flexion_r	hip_adduction_r	hip_rotation_r	knee_angle_r	knee_angle_r_beta	ankle_angle_r	subtalar_angle_r	mtp_angle_r	hip_flexion_l	hip_adduction_l	hip_rotation_l	knee_angle_l	knee_angle_l_beta	ankle_angle_l	subtalar_angle_l	mtp_angle_l	L5_S1_Flex_Ext	L5_S1_Lat_Bending	L5_S1_axial_rotation	L4_L5_Flex_Ext	L4_L5_Lat_Bending	L4_L5_axial_rotation	L3_L4_Flex_Ext	L3_L4_Lat_Bending	L3_L4_axial_rotation	L2_L3_Flex_Ext	L2_L3_Lat_Bending	L2_L3_axial_rotation	L1_L2_Flex_Ext	L1_L2_Lat_Bending	L1_L2_axial_rotation	L1_T12_Flex_Ext	L1_T12_Lat_Bending	L1_T12_axial_rotation	Abs_r3	Abs_r2	Abs_r1	Abs_t1	Abs_t2	neck_flexion	neck_bending	neck_rotation	arm_flex_r	arm_add_r	arm_rot_r	elbow_flex_r	pro_sup_r	wrist_flex_r	wrist_dev_r	arm_flex_l	arm_add_l	arm_rot_l	elbow_flex_l	pro_sup_l	wrist_flex_l	wrist_dev_l
      0.03333333	    -10.15267642	     16.03042239	    -47.87046214	     -0.87499900	      0.90491681	     -1.01486096	     21.61987795	     -0.97214432	     27.37820841	     33.11434128	      0.57795428	      0.00000000	      0.00000000	      0.00000000	     19.46343519	     -7.14556710	    -14.56322090	     10.56094072	      0.18432319	     24.73142613	      0.16882572	      0.00000000	      2.66079274	     -0.43483244	     -0.47314029	      4.94135820	     -0.57832714	     -0.50271156	      4.37141640	     -1.05725158	     -0.50271156	      3.04102003	     -1.05725158	     -0.41399776	      2.47081214	     -0.88671030	     -0.38442649	      1.52037697	     -0.67355544	     -0.35485522	     19.00577649	     -4.91891148	     -2.63146436	      0.00000000	      0.00000000	     -4.40898194	      7.79969484	    -25.84394045	    -10.84123524	     -1.63064093	    -14.95831423	     14.47316305	     89.99559364	      0.00000000	      0.00000000	    -14.46351412	    -12.99013779	     19.51532951	     29.65997921	     89.99559364	      0.00000000	      0.00000000
      0.06666667	    -10.02674000	     15.95698226	    -47.84203259	     -0.87343946	      0.90533124	     -1.01418651	     21.09834422	     -1.22242035	     27.34684989	     32.75963094	      0.57176342	      0.00000000	      0.00000000	      0.00000000	     19.17462084	     -7.01981180	    -14.50580084	     10.48296262	      0.18296221	     24.65026665	      0.23175323	      0.00000000	      2.63343439	     -0.43628876	     -0.46861956	      4.89055101	     -0.58026405	     -0.49790828	      4.32646936	     -1.06079249	     -0.49790828	      3.00975217	     -1.06079249	     -0.41004212	      2.44540718	     -0.88968004	     -0.38075339	      1.50474441	     -0.67581129	     -0.35146467	     18.81035853	     -4.93538571	     -2.60632141	      0.00000000	      0.00000000	     -4.73781484	      7.38014630	    -25.40745540	    -11.05809081	     -1.62294976	    -14.90609304	     15.14249834	     89.99559364	      0.00000000	      0.00000000	    -14.31092916	    -13.06262653	     19.38700495	     29.88980176	     89.99559364	      0.00000000	      0.00000000
      0.10000000	     -9.71543587	     15.71431530	    -47.78784495	     -0.87039720	      0.90627407	     -1.01287317	     19.95776398	     -1.67156366	     27.28789164	     31.75915223	      0.55430177	      0.00000000	      0.00000000	      0.00000000	     18.43842273	     -6.77246974	    -14.38118203	     10.21944910	      0.17836303	     24.48219620	      0.33814479	      0.00000000	      2.56042632	     -0.43656165	     -0.46604140	      4.75496773	     -0.58062699	     -0.49516898	      4.20652441	     -1.06145599	     -0.49516898	      2.92631125	     -1.06145599	     -0.40778622	      2.37761188	     -0.89023651	     -0.37865863	      1.46302760	     -0.67623399	     -0.34953105	     18.28886919	     -4.93847268	     -2.59198243	      0.00000000	      0.00000000	     -5.38895218	      6.54182170	    -24.52218683	    -11.45477676	     -1.62154461	    -14.74010968	     16.54373675	     89.99559364	      0.00000000	      0.00000000	    -14.00797489	    -13.16966992	     19.03010605	     30.34220181	     89.99559364	      0.00000000	      0.00000000
      0.13333333	     -6.28063697	     12.14413049	    -48.15163042	     -0.86846536	      0.91291603	     -1.01395827	     13.74340596	     -2.52081752	     26.46891185	     28.31390770	      0.49417091	      0.00000000	      0.00000000	      0.00000000	     13.15141444	     -6.29063745	    -13.19930472	      9.84060123	      0.17175089	     24.41488999	     -0.58999935	      0.00000000	      1.57372348	     -0.46021770	     -0.58386688	      2.92256188	     -0.61208955	     -0.62035856	      2.58547031	     -1.11897333	     -0.62035856	      1.79860857	     -1.11897333	     -0.51088352	      1.46135963	     -0.93847594	     -0.47439184	      0.89922560	     -0.71287722	     -0.43790016	     11.24094947	     -5.20607472	     -3.24729241	      0.00000000	      0.00000000	     -3.63842017	      6.14874122	    -24.28656571	     -9.00889058	     -3.10991628	     -2.40448749	     17.19848459	     89.99559364	      0.00000000	      0.00000000	    -11.57413516	    -12.99257371	     16.64838174	     30.49651006	     89.99559364	      0.00000000	      0.00000000
      0.16666667	     -2.98840123	      8.59114027	    -48.52559716	     -0.86647464	      0.91995011	     -1.01491399	      7.63327816	     -3.22900348	     25.95759082	     25.67465838	      0.44810732	      0.00000000	      0.00000000	      0.00000000	      7.81414247	     -5.92556084	    -12.60072308	      9.42742824	      0.16453966	     24.19465037	     -0.97034608	      0.00000000	      0.59575281	     -0.46926537	     -0.63804183	      1.10637254	     -0.62412294	     -0.67791945	      0.97876228	     -1.14097181	     -0.67791945	      0.68088588	     -1.14097181	     -0.55828660	      0.55321606	     -0.95692594	     -0.51840899	      0.34041315	     -0.72689205	     -0.47853137	      4.25540272	     -5.30842369	     -3.54859726	      0.00000000	      0.00000000	     -1.92022599	      5.17689991	    -23.66775334	     -6.92049100	     -3.60044710	      1.06703403	     18.72238254	     89.99559364	      0.00000000	      0.00000000	     -9.05975626	    -12.99331845	     14.96462837	     31.03032280	     89.99559364	      0.00000000	      0.00000000
      0.20000000	     -0.15640091	      5.34263247	    -48.57462648	     -0.86396889	      0.92666155	     -1.01569325	      1.93751924	     -3.83412507	     25.12529359	     22.77222733	      0.39745035	      0.00000000	      0.00000000	      0.00000000	      2.92591441	     -5.67063559	    -11.99297903	      8.92450374	      0.15576197	     23.76979737	     -1.23295770	      0.00000000	     -0.28273995	     -0.46191682	     -0.71321069	     -0.52507635	     -0.61434937	     -0.75778635	     -0.46451346	     -1.12310456	     -0.75778635	     -0.32314349	     -1.12310456	     -0.62405935	     -0.26255231	     -0.94194079	     -0.57948368	     -0.16155761	     -0.71550916	     -0.53490801	     -2.01958316	     -5.22529549	     -3.96666387	      0.00000000	      0.00000000	     -0.34613909	      3.97445953	    -22.70625113	     -5.21015316	     -4.14582357	      3.66513099	     20.60838256	     89.99559364	      0.00000000	      0.00000000	     -6.92186550	    -12.78458807	     12.39582357	     31.79777834	     89.99559364	      0.00000000	      0.00000000
      0.23333333	      1.63217657	      3.24866288	    -48.42213443	     -0.86066590	      0.93130620	     -1.01547988	     -2.14710672	     -4.32580760	     24.67011348	     20.03518732	      0.34967998	      0.00000000	      0.00000000	      0.00000000	     -0.37091128	     -5.47921761	    -11.54625797	      8.51687320	      0.14864748	     23.41765776	     -1.35084541	      0.00000000	     -0.85592136	     -0.44669860	     -0.78500313	     -1.58953155	     -0.59410914	     -0.83406583	     -1.40619320	     -1.08610299	     -0.83406583	     -0.97823252	     -1.08610299	     -0.68687774	     -0.79480857	     -0.91090779	     -0.63781505	     -0.48907346	     -0.69193614	     -0.58875235	     -6.11376065	     -5.05314396	     -4.36595193	      0.00000000	      0.00000000	      0.52315945	      2.69999688	    -21.34312128	     -4.37761813	     -4.70724351	      5.53811890	     22.72022407	     89.99559364	      0.00000000	      0.00000000	     -5.45495170	    -12.75764469	     11.04336937	     32.57667091	     89.99559364	      0.00000000	      0.00000000
      0.26666667	      2.03867809	      2.73367330	    -48.34872235	     -0.85656211	      0.93282392	     -1.01348588	     -3.93603379	     -4.69819790	     24.57105791	     17.59886557	      0.30715815	      0.00000000	      0.00000000	      0.00000000	     -1.59867294	     -5.32883253	    -11.44344590	      8.07350013	      0.14090916	     23.10896258	     -1.30006385	      0.00000000	     -1.01054807	     -0.42663951	     -0.83020671	     -1.87668882	     -0.56743054	     -0.88209463	     -1.66022943	     -1.03733130	     -0.88209463	     -1.15495539	     -1.03733130	     -0.72643087	     -0.93839494	     -0.87000328	     -0.67454295	     -0.57742717	     -0.66086460	     -0.62265503	     -7.21824382	     -4.82623143	     -4.61736066	      0.00000000	      0.00000000	      0.32257780	      1.60646940	    -19.27095738	     -4.71458545	     -5.13154695	      5.95958083	     24.95077590	     89.99559364	      0.00000000	      0.00000000	     -5.07288323	    -12.79961656	     10.27777095	     33.40232875	     89.99559364	      0.00000000	      0.00000000
